<?xml version="1.0" encoding="utf-8"?>
<!-- Generator: Adobe Illustrator 16.0.0, SVG Export Plug-In . SVG Version: 6.00 Build 0)  -->
<!DOCTYPE svg PUBLIC "-//W3C//DTD SVG 1.1//EN" "http://www.w3.org/Graphics/SVG/1.1/DTD/svg11.dtd">
<svg version="1.1" id="Layer_1" xmlns="http://www.w3.org/2000/svg" xmlns:xlink="http://www.w3.org/1999/xlink" x="0px" y="0px"
	 width="898px" height="101.757px" viewBox="0 0 898 101.757" enable-background="new 0 0 898 101.757" xml:space="preserve">
<g>
	<g>
		<g>
			<g>
				<path fill="#0477BC" d="M761.961,32.504c3.242,0,6.43,0,9.342,0v-3.166h-9.563v-3.758h9.563v-8.003h20.367V4.354h17.596v-0.93
					c-4.045-1.79-8.797-2.806-14.492-2.806h-42.698v32.158C755.098,32.654,758.523,32.083,761.961,32.504z M761.306,10.632h14.415
					v3.755h-14.415V10.632z"/>
				<path fill="#0477BC" d="M821.518,14.06h-2.499v6.608h-16.137c0.642,0.562,1.279,1.177,1.863,1.925h20.9
					C824.529,19.519,823.195,16.644,821.518,14.06z"/>
				<path fill="#0477BC" d="M817.206,88.958h3.005c4.824-6.563,7.694-15.493,8.829-26.15h-13.351v-3.771h11.157V57.55h2.628
					c0.105-2.042,0.179-4.122,0.179-6.261c0-8.679-0.757-17.448-2.919-25.211h-19.951c2.37,5.163,3.642,13.104,3.642,25.071
					c0,20.163-4.69,32.841-17.146,32.841h-21.976v-2.955h-5.078v-4.802h5.078v-7.39h-13.844v-3.753h13.844v-1.377h-4.826v-3.775
					h4.826V41.536c-2.906-0.775-6.12-1.639-9.342,0.672c-3.438,0.843-6.863-0.254-9.886-0.492v59.419h42.698
					c9.562,0,16.966-3.115,22.433-8.62V88.958z"/>
			</g>
			<g>
				<polygon fill="#E20613" points="729.172,93.356 734.451,93.356 734.451,84.94 739.121,84.94 739.121,84.306 737.374,84.306 
					737.374,80.539 748.382,80.539 748.382,79.533 729.172,79.533 				"/>
				<path fill="#E20613" d="M771.881,0.618h-14.532c0,0.112,0,0.228,0,0.346c0,0.592,0,2.888,0,4.232c3.265,0,7.114,0,10.936,0
					c5.051-0.617,10.091,0.938,13.858,0c3.774-1.079,6.294,0,6.294,0s0,2.774,0,4.851c0,0.704,0,3.76,0,4.856
					c0,0.215-2.52-2.254-6.294,0c-3.768-1.741-8.808,1.232-13.858,0c-5.032-3.602-10.058,0.539-13.845,0c-3.771,0-6.289,0-6.289,0
					V5.252c-3.289-0.003-7.111,1.495-10.948,0.552c-2.741-1.965-5.504-1.619-8.03-1.001v13.717h11.684v3.758h-11.684v40.427h19.21
					V42.087c-0.397,0-0.633,0-0.633,0v-9.701c0,0,0.235,0,0.633,0V17.578h21.98c7.481,0,12.865,3.272,15.449,14.367
					c1.4,0.107,2.231,0.442,2.231,0.442s0,2.775,0,4.847c0,0.703,0,3.768,0,4.854c0,0.086-0.326-0.152-0.831-0.415
					c0.204,2.842,0.315,5.982,0.315,9.477c0,4.813-0.266,9.17-0.853,13.057h5.67v3.754h-6.36
					c-2.234,10.145-7.131,16.03-15.622,16.03h-16.837v0.951h21.198v9.699h-36.867v6.495h34.024
					c24.536,0,34.875-20.253,34.875-49.846C806.756,26.389,800.812,0.618,771.881,0.618z M737.842,32.896h-6.205v-4.801h6.205
					V32.896z"/>
				<path fill="#E21E83" d="M754.439,5.196c0.508,0,1.077,0,1.605,0c-0.874-0.321-2.129-0.558-3.704,0
					C752.993,5.196,753.667,5.196,754.439,5.196z"/>
			</g>
		</g>
		<g>
			<rect x="734.89" y="32.662" fill="#FFFFFF" width="19.229" height="4.771"/>
			<path fill="#FFFFFF" d="M804.33,41.251c0.121,1.508,0.218,3.086,0.287,4.764h19.196c-0.057-1.596-0.147-3.183-0.264-4.764H804.33
				z"/>
			<path fill="#FFFFFF" d="M798.975,51.149c0,20.163-4.686,32.841-17.144,32.841H759.83V48.885h-19.222v52.25h42.72
				c24.535,0,34.869-20.253,34.869-49.846c0-0.795-0.021-1.598-0.035-2.404h-19.22C798.954,49.645,798.975,50.352,798.975,51.149z"
				/>
			<rect x="746.34" y="41.251" fill="#FFFFFF" width="19.234" height="4.764"/>
			<path fill="#FFFFFF" d="M759.83,17.578h22.001c6.948,0,12.087,2.863,14.85,12.223h19.53
				c-3.506-16.322-12.445-29.183-32.883-29.183h-42.72v29.183h19.222V17.578z"/>
		</g>
	</g>
	<g>
		<g>
			<g>
				<path fill="#0477BC" d="M81.65,83.329c2.119,0.523,4.628,0.268,7.302,0.052v-0.146h-7.711
					C81.39,83.266,81.52,83.28,81.65,83.329z"/>
				<path fill="#0477BC" d="M81.65,93.029c-3.767-2.256-6.287,0.21-6.287,0c0-1.092,0-4.154,0-4.845c0-2.086,0-4.855,0-4.855
					s0.109-0.049,0.266-0.094H50.626c-3.109,0-6.513,0.065-7.886-3.384c-1.661-0.091-3.372,0.239-5.089,1.46
					c-5.037,1.233-10.074-1.734-13.856,0c-0.306-0.198-0.6-0.303-0.903-0.421v0.267c0,18.535,14.25,20.558,23.207,20.178
					c0,0,35.075-1.286,42.854-2.342V92.96C86.278,92.557,83.77,92.056,81.65,93.029z"/>
				<path fill="#0477BC" d="M23.795,71.612c3.782,0.931,8.819-0.627,13.856,0c1.501,0,3.001,0,4.472,0v-3.161h-4.707v-3.77h4.707
					v-4.273l40.591-1.302v-5.823h-4.385v-4.812h4.385v-5.167l-40.591-1.443v-3.832h-4.649v4.042h-6.196v-4.813h6.139v-2.99h4.707
					v-6.834H31.812v-1.842h-0.534v-3.766h11.324c0.696-1.922,2.409-3.335,6.659-3.335h39.691v-1.834h-9.699v-3.473h9.699V11.25
					h-21.31V1.201C56.152,0.71,44.73,0.389,44.73,0.389C35.242,0.21,22.892,3.815,22.892,21.266v50.127
					C23.195,71.463,23.489,71.521,23.795,71.612z M68.679,43.961h6.206v4.811h-6.206V43.961z M37.276,1.209h14.411v3.773H37.276
					V1.209z"/>
			</g>
			<g>
				<path fill="#E20613" d="M66.057,83.234H27.733c-0.036,0-0.071,0-0.104,0v3.093H13.219v-2.528H0.121
					c1.315,16.055,14.564,17.898,23.082,17.535c0,0,35.074-1.286,42.854-2.342V83.234z"/>
				<path fill="#E20613" d="M16.481,81.074v1.495h5.924c-1.581-0.686-2.768-2.091-3.092-4.99c-3.092,0.255-6.005,1.791-8.401,1.458
					c-3.783,0-6.301,0-6.301,0v-9.701c0,0,2.518,0,6.301,0c2.365,0,5.256,0,8.308,0v-8.928l40.583-1.302V43.304l-30.32-1.078v0.392
					H17.177V26.299h2.043v-0.126c0-3.645,0.017-7.561,6.838-7.671V17.88h4.679v-0.64h-1.744v-3.762h14.405v2.437h1.755v1.965h20.904
					V2.586c-3.139-0.427-9.629-0.819-16.687-1.161v8.896h-6.943v2.152h-25.25V0.644C8.751,1.706,0,6.571,0,21.266v59.808H16.481z
					 M4.941,60.351c0,0.605,2.253-0.065,4.523,0c0.519,1.816,1.042,2.6,1.536,2.762c-0.494,0.402-1.018,0.846-1.536,1.294
					c-2.271,5.407-4.523-0.649-4.523,0C4.941,62.662,4.941,60.209,4.941,60.351z M2.751,62.579c0.944-1.421,1.601-3.805,1.601-1.886
					c0,3.515,0,3.894,0,4.071C4.352,62.588,3.695,62.185,2.751,62.579c-0.412,0.627-0.877,1.061-1.376,0.89
					C1.874,63.071,2.339,62.759,2.751,62.579z"/>
			</g>
		</g>
		<g>
			<polygon fill="#FFFFFF" points="36.397,41.861 36.397,41.024 17.17,41.024 17.17,45.801 76.984,45.801 76.984,43.304 			"/>
			<rect x="5.719" y="32.434" fill="#FFFFFF" width="19.225" height="4.774"/>
			<path fill="#FFFFFF" d="M30.67,26.173c0-3.706,0-7.682,7.136-7.682h39.705V2.586c-8.84-1.205-44.233-2.197-44.233-2.197
				C23.794,0.21,11.441,3.815,11.441,21.266v8.307H30.67V26.173z"/>
			<path fill="#FFFFFF" d="M11.441,81.156c0,18.535,14.246,20.558,23.21,20.178c0,0,35.075-1.286,42.859-2.342V83.234H39.18
				c-3.981,0-8.448,0.137-8.51-7.141V60.408l40.58-1.302V48.653H11.441V81.156z"/>
		</g>
	</g>
	<g>
		<g>
			<g>
				<path fill="#0477BC" d="M692.83,83.329c2.104,0.523,4.617,0.268,7.289,0.052v-0.146h-7.69
					C692.57,83.266,692.695,83.28,692.83,83.329z"/>
				<path fill="#0477BC" d="M692.83,93.029c-3.77-2.256-6.295,0.21-6.295,0c0-1.092,0-4.154,0-4.845c0-2.086,0-4.855,0-4.855
					s0.114-0.049,0.266-0.094h-24.981c-3.126,0-6.538,0.065-7.893-3.384c-1.671-0.091-3.386,0.239-5.099,1.46
					c-5.034,1.233-10.085-1.734-13.85,0c-0.312-0.198-0.617-0.303-0.909-0.421v0.267c0,18.535,14.235,20.558,23.221,20.178
					c0,0,35.07-1.286,42.829-2.342V92.96C697.447,92.557,694.935,92.056,692.83,93.029z"/>
				<path fill="#0477BC" d="M634.979,71.612c3.765,0.931,8.815-0.627,13.85,0c1.512,0,2.988,0,4.476,0v-3.161h-4.7v-3.77h4.7v-4.273
					l40.581-1.302v-5.823h-4.389v-4.812h4.389v-5.167l-40.581-1.443v-3.832h-4.639v4.042h-6.2v-4.813h6.139v-2.99h4.7v-6.834
					h-10.321v-1.842h-0.518v-3.766h11.321c0.679-1.922,2.39-3.335,6.649-3.335h39.684v-1.834h-9.699v-3.473h9.699V11.25h-21.301
					V1.201c-11.489-0.491-22.91-0.812-22.91-0.812c-9.488-0.179-21.839,3.426-21.839,20.876v50.127
					C634.361,71.463,634.666,71.521,634.979,71.612z M679.854,43.961h6.199v4.811h-6.199V43.961z M648.445,1.209h14.423v3.773
					h-14.423V1.209z"/>
			</g>
			<g>
				<g>
					<path fill="#E20613" d="M677.221,83.234h-38.299c-0.035,0-0.094,0-0.128,0v3.093h-14.403v-2.528h-13.088
						c1.316,16.055,14.572,17.898,23.072,17.535c0,0,35.067-1.286,42.846-2.342V83.234z"/>
					<path fill="#E20613" d="M627.658,81.074v1.495h5.919c-1.563-0.686-2.771-2.091-3.086-4.99c-3.106,0.255-6.01,1.791-8.414,1.458
						c-3.767,0-6.292,0-6.292,0v-9.701c0,0,2.525,0,6.292,0c2.378,0,5.26,0,8.329,0v-8.928l40.574-1.302V43.304l-30.311-1.078v0.392
						h-12.307V26.299h2.043v-0.126c0-3.645,0.012-7.561,6.838-7.671V17.88h4.668v-0.64h-1.742v-3.762h14.396v2.437h1.75v1.965
						h20.904V2.586c-3.118-0.427-9.625-0.819-16.682-1.161v8.896h-6.945v2.152h-25.23V0.644
						c-8.434,1.062-17.186,5.927-17.186,20.622v59.808H627.658z M616.133,60.351c0,0.605,2.238-0.065,4.51,0
						c0.516,1.816,1.042,2.6,1.523,2.762c-0.481,0.402-1.008,0.846-1.523,1.294c-2.271,5.407-4.51-0.649-4.51,0
						C616.133,62.662,616.133,60.209,616.133,60.351z M613.926,62.579c0.955-1.421,1.599-3.805,1.599-1.886c0,3.515,0,3.894,0,4.071
						C615.524,62.588,614.881,62.185,613.926,62.579c-0.4,0.627-0.883,1.061-1.38,0.89
						C613.043,63.071,613.525,62.759,613.926,62.579z"/>
				</g>
			</g>
		</g>
		<g>
			<polygon fill="#FFFFFF" points="647.565,41.861 647.565,41.024 628.343,41.024 628.343,45.801 688.166,45.801 688.166,43.304 			
				"/>
			<rect x="616.89" y="32.434" fill="#FFFFFF" width="19.229" height="4.774"/>
			<path fill="#FFFFFF" d="M641.854,26.173c0-3.706,0-7.682,7.133-7.682h39.691V2.586c-8.834-1.205-44.223-2.197-44.223-2.197
				c-9.477-0.179-21.832,3.426-21.832,20.876v8.307h19.23V26.173z"/>
			<path fill="#FFFFFF" d="M622.623,81.156c0,18.535,14.234,20.558,23.196,20.178c0,0,35.072-1.286,42.858-2.342V83.234h-38.309
				c-3.993,0-8.461,0.137-8.516-7.141V60.408l40.574-1.302V48.653h-59.805V81.156z"/>
		</g>
	</g>
	<g>
		<g>
			<g>
				<polygon fill="#0477BC" points="425.766,29.595 427.176,29.595 427.176,23.993 421.546,23.993 421.546,14.295 427.176,14.295 
					427.176,12.044 407.944,12.044 407.944,31.556 425.766,31.556 				"/>
				<rect x="407.944" y="0.618" fill="#0477BC" width="19.231" height="8.717"/>
				<path fill="#0477BC" d="M465.461,98.431v-3.768h4.691v-1.847h-0.848V91.5h-9.812v-8.076h-23.794
					c-3.999,0-8.523,0.139-8.523-7.151V51.117h-12.331v-3.755h11.149v-1.498h1.182V41.26h-19.231v40.318
					c0,15.503,9.997,19.557,20.95,19.557h41.258v-2.704H465.461z"/>
			</g>
			<path fill="#E20613" d="M442.075,87.96c-5.037-3.594-10.059,0.538-13.855,0c-3.772,0-6.294,0-6.294,0v-1.1h-2.669v-3.437h-6.474
				c-3.977,0-8.501,0.139-8.501-7.151V60.286h-2.258v-4.069h2.258V33.953h-13.188v-3.769h13.188V0.618H385.05v52.749h1.33h12.751
				v3.769H385.05v7.374h5.324v4.813h-5.324v12.256c0,1.539,0.129,2.939,0.318,4.275c3.618,0,8.111,0,12.668,0
				c5.028-0.62,10.067,0.935,13.847,0c3.771-1.085,6.297,0,6.297,0s0,2.775,0,4.851c0,0.698,0,3.764,0,4.849
				c0,0.223-2.526-2.255-6.297,0c-3.779-1.738-8.818,1.237-13.847,0c-3.113-2.233-6.222-1.495-9.035-0.732
				c1.573,1.927,3.544,3.323,5.776,4.308h22.118v2.006h30.363v-13.05C445.562,88.309,443.812,88.39,442.075,87.96z M396.748,46.139
				h-6.205V41.33h6.205V46.139z"/>
		</g>
		<g>
			<rect x="390.776" y="38.506" fill="#FFFFFF" width="19.22" height="4.769"/>
			<rect x="402.227" y="47.096" fill="#FFFFFF" width="19.221" height="4.778"/>
			<rect x="396.5" y="0.618" fill="#FFFFFF" width="19.22" height="35.039"/>
			<path fill="#FFFFFF" d="M396.5,81.578c0,15.503,9.988,19.557,20.94,19.557h41.271V83.424h-34.467
				c-3.996,0-8.524,0.139-8.524-7.151V54.728H396.5V81.578z"/>
		</g>
	</g>
	<g>
		<g>
			<g>
				<path fill="#0477BC" d="M347.696,72.711h-6.821v-9.702h8.015c0.261-3.481,0.406-7.246,0.406-11.375
					c0-11.154-0.952-19.891-2.687-26.781c-3.014-0.42-5.856-1.157-8.2-0.075c-3.779-2.244-6.301,0.206-6.301,0
					c0-1.082,0-4.153,0-4.846c0-2.098,0-4.854,0-4.854s2.521-1.095,6.301,0c1.424,0.355,3.035,0.351,4.756,0.238
					c-1.142-2.211-2.401-4.119-3.805-5.75h-24.278v2.542h-7.648v5.619c0.503-0.005,1.014-0.005,1.547-0.005
					c15.285,0,21.084,2.601,21.084,33.912c0,11.802-0.939,19.464-3.339,24.362h20.279C347.258,74.939,347.475,73.86,347.696,72.711z
					"/>
				<path fill="#0477BC" d="M282.191,49.328v-2.151h-6.937v-9.701h6.937v-2.243h-12.774c-0.571,4.795-0.882,10.225-0.882,16.401
					c0,1.074,0.021,2.077,0.035,3.101h10.887V52.77h1.752v-2.438h6.561c0-0.335,0.007-0.671,0.012-1.004H282.191z"/>
				<path fill="#0477BC" d="M327.014,78.71h-2.023c-0.682,0.867-1.433,1.639-2.292,2.254h4.315V78.71z"/>
				<path fill="#0477BC" d="M289.05,32.513c2.233-12.111,7.436-14.367,16.23-14.732v-5.672h-4.608V8.348h4.608V1.045l2.153,5.06
					v2.242h4.387V6.85h24.782C329.6,0.995,320.076,0,308.98,0c-19.465,0-34.865,3.228-39.209,32.513H289.05z"/>
				<path fill="#0477BC" d="M303.087,98.211h21.204v-1.958h1.747V93.82h11.828c0.34-0.315,0.684-0.661,1.013-1.004h-11.865v-2.162
					h-6.94v-8.276c-2.92,1.218-6.543,1.665-11.093,1.665c-6.199,0-10.673-0.671-13.871-2.784h-9.63v-3.768h6.096
					c-1.771-2.963-2.823-7.14-3.349-13.051h-19.18c2.568,30.67,15.129,36.415,34.04,37.197V98.211z"/>
			</g>
			<path fill="#E20613" d="M294.014,99.348c-3.777,0-6.295,0-6.295,0v-9.695c0,0,2.518,0,6.295,0c3.773,0,8.819,0,13.847,0
				c3.645-0.45,7.29,0.221,10.458,0.29c3.959-5.632,6.555-13.875,7.569-25.829h-0.592v-3.778h0.866
				c0.142-2.73,0.227-5.613,0.227-8.701c0-21.215-3.367-33.78-9.235-41.204h-8.532V6.677h4.852C306.491,0.985,297.059,0,286.074,0
				c-14.37,0-26.532,1.772-33.657,14.498h11.629v9.048h-15.284c-1.363,4.787-2.3,10.545-2.77,17.445h1.479v4.071h-1.692
				c-0.072,1.754-0.115,3.56-0.124,5.471h12.419V66.83h-11.718c3.33,31.555,18.076,34.927,39.718,34.927
				c8.015,0,15.055-0.622,20.93-2.936C302.249,96.214,297.579,99.854,294.014,99.348z M252.425,31.683h-1.148v-0.244h1.148V31.683z
				 M318.293,76.829h-6.206v-4.812h6.206V76.829z M292.976,13.611h9.032v4.073h-9.032V13.611z M262.014,11.479v-4.09h9.031v4.09
				H262.014z M277.824,90.163h-6.208v-4.809h6.208V90.163z M264.866,51.634c0-2.811,0.052-5.38,0.151-7.739h-5.699v-3.771h5.92
				c1.528-20.958,8.011-22.401,20.836-22.401c4.188,0,7.658,0.189,10.491,1.118h9.753v3.767h-0.544v0.154h6.868v3.77h-8.369
				c1.994,5.014,2.883,12.85,2.883,25.103c0,20.179-2.748,28.274-10.819,31.088h11.761v3.767h-14.412v-3.056
				c-2.21,0.436-4.719,0.609-7.611,0.609C268.911,84.043,264.866,79.063,264.866,51.634z"/>
		</g>
		<g>
			<path fill="#FFFFFF" d="M324.08,41.602c0.081,1.508,0.15,3.091,0.203,4.776h19.196c-0.049-1.654-0.12-3.224-0.208-4.776H324.08z"
				/>
			<path fill="#FFFFFF" d="M318.616,51.634c0,27.097-4.956,32.409-21.082,32.409c-17.177,0-21.217-4.98-21.217-32.409
				c0-0.825,0.005-1.604,0.016-2.39H257.12c-0.009,0.794-0.03,1.565-0.03,2.39c0,45.736,15.719,50.123,40.444,50.123
				c24.714,0,40.299-5.768,40.299-50.123c0-0.825-0.013-1.596-0.024-2.39H318.6C318.608,50.03,318.616,50.809,318.616,51.634z"/>
			<path fill="#FFFFFF" d="M271.788,33.019h-19.25c-0.229,1.516-0.403,3.117-0.552,4.777h19.17
				C271.334,36.068,271.537,34.471,271.788,33.019z"/>
			<path fill="#FFFFFF" d="M263.125,41.602c-0.097,1.552-0.166,3.122-0.211,4.776h19.191c0.047-1.685,0.118-3.268,0.206-4.776"/>
			<path fill="#FFFFFF" d="M297.534,17.723c10.58,0,16.614,1.254,19.334,12.433h19.418C331.646,3.068,317.015,0,297.534,0
				c-18.932,0-34.006,3.068-38.818,30.155h19.387C280.918,18.67,287.141,17.723,297.534,17.723z"/>
		</g>
	</g>
	<g>
		<g>
			<g>
				<polygon fill="#0477BC" points="167.928,101.135 173.976,101.135 173.976,98.617 180.927,98.617 180.927,96.468 191.714,96.468 
					192.052,95.454 179.941,95.454 179.941,93.033 178.188,93.033 178.188,91.058 164.767,91.058 165.615,93.758 166.273,93.845 
					165.644,93.845 				"/>
				<path fill="#0477BC" d="M142.587,20.334V17.26h13.733c0-0.326,0-0.659,0-0.961c0-0.707,0-3.77,0-4.854
					c0-0.17,1.528,1.245,3.98,0.863l-1.389-4.648h-20.296L142.587,20.334z"/>
				<polygon fill="#0477BC" points="150.781,46.465 166.519,46.465 166.519,44.222 159.57,44.222 159.57,34.521 166.519,34.521 
					166.519,33.225 165.955,31.365 165.539,31.365 165.539,29.938 165.24,28.923 163.791,28.923 163.791,26.958 144.674,26.958 
					149.097,41.093 149.117,41.093 149.097,41.093 				"/>
				<polygon fill="#0477BC" points="192.603,91.058 192.603,91.703 193.292,91.703 193.494,91.058 				"/>
				<polygon fill="#0477BC" points="153.689,4.937 158.267,5.479 156.823,0.618 136.406,0.618 137.764,4.937 				"/>
				<path fill="#0477BC" d="M209.142,0.964h-6.323l-6.209,19.651v0.533c0,0-0.061,0-0.166,0l-8.777,27.824V49.2h-0.067
					l-8.411,26.665L171.263,49.2H151.64l10.085,32.153h32.131v-15.02h7.804l1.197-3.646c-0.827,0.01-2.341,0.29-3.858,0.255
					c-0.523-1.819-1.053-2.598-1.546-2.765c0.493-0.392,1.022-0.853,1.546-1.296c2.26-5.402,4.508,0.651,4.508,0
					c0,0.57,0,1.207,0,1.828l7.845-23.778c-1.642-0.101-3.194-0.119-4.567,0.228c-3.783,1.089-6.305,0-6.305,0s0-2.766,0-4.851
					c0-0.694,0-3.756,0-4.851c0-0.216,2.521,2.246,6.305,0c2.209,1.016,4.866,0.433,7.691,0.02l7.146-21.676h-10.947V2.038h12.189
					l0.472-1.42h-14.193V0.964z M205.002,40.662v4.083h-9.03v-4.083H205.002z"/>
			</g>
			<g>
				<polygon fill="#E20613" points="180.384,7.095 187.329,7.095 187.329,16.792 180.384,16.792 180.384,19.041 194.356,19.041 
					200.439,0.618 183.119,0.618 183.119,1.499 181.373,1.499 181.373,3.924 178.974,3.924 178.658,4.937 180.384,4.937 				"/>
				<path fill="#E20613" d="M127.312,26.929h-5.551l12.479,39.819v-7.966c0,0,2.521,0,6.29,0c3.084-0.446,6.987,2.227,11.062,1.281
					l-10.91-36.706h-13.37V26.929z M135.95,35.292h6.207v4.802h-6.207V35.292z"/>
				<polygon fill="#E21E83" points="121.104,24.853 121.104,23.357 120.636,23.357 				"/>
				<polygon fill="#E20613" points="116.189,9.145 128.196,9.145 128.196,18.85 119.228,18.85 119.783,20.625 137.69,20.625 
					137.69,18.092 139.111,18.092 133.921,0.618 113.514,0.618 				"/>
				<path fill="#E20613" d="M175.93,21.757v2.812h-3.464l-10.833,34.375c2.415,0.381,4.676,0.722,6.613-0.162
					c3.766,2.245,6.287-0.223,6.287,0c0,1.087,0,4.145,0,4.854c0,2.075,0,4.842,0,4.842s-0.323,0.132-0.859,0.253v4.211h-6.205
					v-4.599c-1.672-0.252-3.539-0.156-5.548,0v2.734h-2.275v0.59h-2.042l-1.321,4.197l-1.244-4.197h-9.808v-3.19
					c-1.684,0-3.29,0-4.699,0c-2.748,0-4.811,0-5.747,0l9.74,31.05c2,0.299,3.874,0.43,5.513-0.316c3.78,2.246,6.295-0.213,6.295,0
					c0,0.428,0,1.153,0,1.923h5.574v-7.146h7.729l23.822-72.232H175.93z M171.931,35.695h-1.662v-3.76h14.42v3.76H171.931z"/>
			</g>
		</g>
		<g>
			<polygon fill="#FFFFFF" points="148.734,31.215 128.83,31.215 130.317,35.987 150.154,35.987 			"/>
			<polyline fill="#FFFFFF" points="162.739,39.795 142.967,39.795 144.458,44.566 			"/>
			<polygon fill="#FFFFFF" points="184.842,39.795 183.333,44.566 203.108,44.566 204.685,39.795 			"/>
			<polygon fill="#FFFFFF" points="167.738,75.865 159.282,47.432 139.637,47.432 156.479,101.135 178.726,101.135 196.44,47.432 
				176.711,47.432 			"/>
			<polygon fill="#FFFFFF" points="145.378,0.618 124.964,0.618 133.655,28.343 153.611,28.343 			"/>
			<polygon fill="#FFFFFF" points="211.88,0.618 191.479,0.618 182.731,28.343 202.73,28.343 			"/>
		</g>
	</g>
	<g>
		<g>
			<g>
				<polygon fill="#0477BC" points="528.961,101.135 535.012,101.135 535.012,98.617 541.954,98.617 541.954,96.468 552.74,96.468 
					553.09,95.454 540.982,95.454 540.982,93.033 539.234,93.033 539.234,91.058 525.809,91.058 526.659,93.758 527.307,93.845 
					526.685,93.845 				"/>
				<path fill="#0477BC" d="M503.62,20.334V17.26h13.741c0-0.326,0-0.659,0-0.961c0-0.707,0-3.77,0-4.854
					c0-0.17,1.535,1.245,3.961,0.863l-1.368-4.648h-20.298L503.62,20.334z"/>
				<polygon fill="#0477BC" points="511.834,46.465 527.562,46.465 527.562,44.222 520.618,44.222 520.618,34.521 527.562,34.521 
					527.562,33.225 526.999,31.365 526.561,31.365 526.561,29.938 526.271,28.923 524.815,28.923 524.815,26.958 505.713,26.958 
					510.137,41.093 510.156,41.093 510.137,41.093 				"/>
				<polygon fill="#0477BC" points="553.635,91.058 553.635,91.703 554.322,91.703 554.526,91.058 				"/>
				<polygon fill="#0477BC" points="514.728,4.937 519.297,5.479 517.867,0.618 497.443,0.618 498.806,4.937 				"/>
				<path fill="#0477BC" d="M570.175,0.964h-6.317l-6.206,19.651v0.533c0,0-0.062,0-0.163,0l-8.77,27.824V49.2h-0.073l-8.421,26.665
					L532.293,49.2h-19.608l10.077,32.153H554.9v-15.02h7.801l1.185-3.646c-0.826,0.01-2.334,0.29-3.84,0.255
					c-0.535-1.819-1.064-2.598-1.553-2.765c0.488-0.392,1.018-0.853,1.553-1.296c2.242-5.402,4.505,0.651,4.505,0
					c0,0.57,0,1.207,0,1.828l7.85-23.778c-1.65-0.101-3.213-0.119-4.588,0.228c-3.778,1.089-6.299,0-6.299,0s0-2.766,0-4.851
					c0-0.694,0-3.756,0-4.851c0-0.216,2.521,2.246,6.299,0c2.216,1.016,4.87,0.433,7.693,0.02l7.15-21.676h-10.941V2.038h12.19
					l0.464-1.42h-14.194V0.964z M566.026,40.662v4.083H557v-4.083H566.026z"/>
			</g>
			<g>
				<polygon fill="#E20613" points="541.419,7.095 548.359,7.095 548.359,16.792 541.419,16.792 541.419,19.041 555.387,19.041 
					561.465,0.618 544.144,0.618 544.144,1.499 542.401,1.499 542.401,3.924 540.02,3.924 539.689,4.937 541.419,4.937 				"/>
				<path fill="#E20613" d="M488.354,26.929h-5.551l12.481,39.819v-7.966c0,0,2.526,0,6.293,0c3.064-0.446,6.987,2.227,11.06,1.281
					l-10.921-36.706h-13.362V26.929z M496.996,35.292h6.211v4.802h-6.211V35.292z"/>
				<polygon fill="#E21E83" points="482.146,24.853 482.146,23.357 481.67,23.357 				"/>
				<polygon fill="#E20613" points="477.224,9.145 489.243,9.145 489.243,18.85 480.268,18.85 480.818,20.625 498.735,20.625 
					498.735,18.092 500.139,18.092 494.949,0.618 474.549,0.618 				"/>
				<path fill="#E20613" d="M536.967,21.757v2.812h-3.47l-10.83,34.375c2.423,0.381,4.671,0.722,6.621-0.162
					c3.762,2.245,6.284-0.223,6.284,0c0,1.087,0,4.145,0,4.854c0,2.075,0,4.842,0,4.842s-0.328,0.132-0.855,0.253v4.211h-6.203
					v-4.599c-1.678-0.252-3.54-0.156-5.556,0v2.734h-2.265v0.59h-2.051l-1.319,4.197l-1.258-4.197h-9.801v-3.19
					c-1.687,0-3.276,0-4.687,0c-2.754,0-4.837,0-5.758,0l9.726,31.05c2.025,0.299,3.894,0.43,5.536-0.316
					c3.766,2.246,6.289-0.213,6.289,0c0,0.428,0,1.153,0,1.923h5.57v-7.146h7.727l23.824-72.232H536.967z M532.977,35.695h-1.666
					v-3.76h14.412v3.76H532.977z"/>
			</g>
		</g>
		<g>
			<polygon fill="#FFFFFF" points="509.767,31.215 489.87,31.215 491.351,35.987 511.198,35.987 			"/>
			<polyline fill="#FFFFFF" points="523.773,39.795 504.012,39.795 505.49,44.566 			"/>
			<polygon fill="#FFFFFF" points="545.863,39.795 544.375,44.566 564.141,44.566 565.72,39.795 			"/>
			<polygon fill="#FFFFFF" points="528.773,75.865 520.313,47.432 500.674,47.432 517.512,101.135 539.759,101.135 557.488,47.432 
				537.742,47.432 			"/>
			<polygon fill="#FFFFFF" points="506.402,0.618 485.996,0.618 494.689,28.343 514.654,28.343 			"/>
			<polygon fill="#FFFFFF" points="572.914,0.618 552.504,0.618 543.77,28.343 563.775,28.343 			"/>
		</g>
	</g>
	<g>
		<g>
			<g>
				<path fill="#0477BC" d="M885.743,96.38v-1.556H898v-9.899c0-2.288-0.996-3.581-3.582-3.581h-3.026v2.27h-9.417V81.36
					c-2.221,0.044-3.341,1.451-3.341,3.565V96.38H885.743z"/>
				<path fill="#0477BC" d="M898,97.843v-0.177h-8.843v2.656h-9.429c0.613,0.507,1.404,0.812,2.349,0.812h12.341
					C896.416,101.135,898,100.42,898,97.843z"/>
			</g>
			<path fill="#E20613" d="M870.499,81.344h-12.334c-2.312,0-3.442,1.434-3.442,3.581v12.918c0,2.007,1.42,3.292,3.442,3.292h12.334
				c2.002,0,3.589-0.715,3.589-3.292V84.925C874.088,82.637,873.079,81.344,870.499,81.344z M867.625,91.42h-6.475v-5.036h6.475
				V91.42z"/>
		</g>
		<g>
			<path fill="#FFFFFF" d="M866.662,97.843c0,2.007,1.445,3.292,3.453,3.292h12.33c2.029,0,3.593-0.715,3.593-3.292V94.39h-19.376
				V97.843z"/>
			<rect x="872.645" y="86.406" fill="#FFFFFF" width="19.366" height="4.995"/>
			<path fill="#FFFFFF" d="M876.471,81.344h-12.342c-1.703,0-2.771,0.794-3.195,2.08h18.926
				C879.467,82.078,878.427,81.344,876.471,81.344z"/>
		</g>
	</g>
</g>
</svg>
